<?xml version="1.0" encoding="UTF-8"?>
<svg width="100pt" height="100pt" version="1.1" viewBox="0 0 100 100" xmlns="http://www.w3.org/2000/svg">
 <path d="m48.039 21.152-22.035 8.8164c-0.76172 0.30469-1.2695 1.1523-1.1797 1.9688v34.434c0.003906 0.48828 0.20703 0.97266 0.55078 1.3203 2.1875 2.1875 5.625 4.2383 9.8359 4.9375 0.36328 0.0625 0.74609 0.011719 1.082-0.13672l2.3789-1.0625v1.2383c0.003906 0.48828 0.20703 0.97266 0.55078 1.3203 2.1875 2.1875 5.625 4.2383 9.8359 4.9375 0.36328 0.0625 0.74609 0.011719 1.082-0.13672l23.926-10.703c0.66016-0.29297 1.1172-0.99219 1.1211-1.7109v-34.633c0.007812-1.0742-1.0625-2.0234-2.125-1.8906-1.2227 0.35547-2.4922 0.98438-3.5234 1.418l-5.1953-1.2188c0.29297-0.58594 0.25391-1.3242-0.10156-1.875-0.35547-0.55078-1.0156-0.89062-1.668-0.85938-0.46484 0.019532-0.80469 0.18359-1.2383 0.35547v-2.2227c-0.10547-1.4102-1.2969-2.1289-2.6172-1.75-1.0469 0.44141-2.0195 0.85156-3.0312 1.2773l-5.1953-1.2188c0.29297-0.58594 0.25391-1.3242-0.10156-1.875-0.79688-0.82031-1.4023-0.96094-2.3555-0.72266zm1.1992 3.6016 4.4648 1.043c-3.8633 1.625-7.8555 3.3125-11.766 4.957 0.046875 0.015625 0.011719 0.011719-0.23438-0.57031l-8.0469 3.2266c-0.3125-0.058594-0.63281-0.12891-0.94531-0.21484l9.2266-3.6992-0.23438-0.57031-9.8789 3.957c-0.23828-0.09375-0.47266-0.20312-0.70703-0.31641l10.82-4.3281-0.19531-0.47266zm8.3242 3.5234v0.90625l-17.59 7.043c-0.875 0.33594-1.2695 1.1016-1.2969 2.0078v29.062l-1.2578 0.57031v-31.109c7.207-3.0352 13.406-5.6406 20.148-8.4805zm5.5273 2.7734 4.4648 1.043c-3.8672 1.6289-7.8555 3.3125-11.766 4.957 0 0 0.035157 0.011719-0.23437-0.57031l-8.0664 3.2266c-0.31641-0.058593-0.62891-0.125-0.94531-0.21484l9.2461-3.6992-0.23437-0.57031-9.8984 3.957c-0.24219-0.09375-0.48828-0.17969-0.72656-0.29688l10.859-4.3477-0.19531-0.47266zm8.3242 3.5234v30.578l-20.148 9.0117v-31.109c7.207-3.0352 13.402-5.6406 20.148-8.4805z" fill="#fffdfb"/>
</svg>
