<?xml version="1.0" encoding="UTF-8"?>
<svg width="100pt" height="100pt" version="1.1" viewBox="0 0 100 100" xmlns="http://www.w3.org/2000/svg">
 <path d="m42.129 77.551h-13.121c-0.72266 0-1.3125-0.58594-1.3125-1.3125v-24.926h-3.9375c-0.52734 0-1.0078-0.32031-1.2109-0.80859-0.20312-0.49219-0.089844-1.0547 0.28516-1.4336l26.238-26.238c0.51172-0.51172 1.3438-0.51172 1.8555 0l26.242 26.238c0.375 0.37891 0.48828 0.94141 0.28516 1.4336-0.20312 0.48828-0.68359 0.80859-1.2148 0.80859h-3.9336v24.926c0 0.72656-0.58984 1.3125-1.3125 1.3125h-13.121c-0.34766 0-0.67969-0.13672-0.92578-0.38281-0.24609-0.24609-0.38672-0.58203-0.38672-0.92969v-15.742c0-0.72266-0.58594-1.3125-1.3125-1.3125h-10.496c-0.72266 0-1.3086 0.58984-1.3086 1.3125v15.742c0 0.34766-0.14062 0.68359-0.38672 0.92969-0.24609 0.24609-0.57813 0.38281-0.92578 0.38281z" fill="#fffdfb" fill-rule="evenodd"/>
</svg>
