<?xml version="1.0" encoding="UTF-8"?>
<svg width="100pt" height="100pt" version="1.1" viewBox="0 0 100 100" xmlns="http://www.w3.org/2000/svg">
 <g fill="#fffdfb">
  <path d="m34.375 64.062h37.5c0.86328 0 1.5625-0.69922 1.5625-1.5625s-0.69922-1.5625-1.5625-1.5625h-37.5c-0.86328 0-1.5625 0.69922-1.5625 1.5625s0.69922 1.5625 1.5625 1.5625z"/>
  <path d="m64.062 68.75h-21.875c-0.86328 0-1.5625 0.69922-1.5625 1.5625s0.69922 1.5625 1.5625 1.5625h21.875c0.86328 0 1.5625-0.69922 1.5625-1.5625s-0.69922-1.5625-1.5625-1.5625z"/>
  <path d="m76.562 3.125h-53.125c-4.3164 0-7.8125 3.4961-7.8125 7.8125v78.125c0 2.0703 0.82422 4.0586 2.2891 5.5234 1.4648 1.4648 3.4531 2.2891 5.5234 2.2891h56.25c2.5859-0.007812 4.6797-2.1016 4.6875-4.6875v-81.25c0-2.0703-0.82422-4.0586-2.2891-5.5234-1.4648-1.4648-3.4531-2.2891-5.5234-2.2891zm4.6875 84.375h-53.125c-0.86328 0-1.5625 0.69922-1.5625 1.5625s0.69922 1.5625 1.5625 1.5625h53.125v1.5625c0 0.41406-0.16406 0.8125-0.45703 1.1055s-0.69141 0.45703-1.1055 0.45703h-56.25c-2.5898 0-4.6875-2.0977-4.6875-4.6875s2.0977-4.6875 4.6875-4.6875h53.125c1.6914 0 3.3359-0.54688 4.6875-1.5625zm0-10.938c-0.007812 2.5859-2.1016 4.6797-4.6875 4.6875h-51.562v-25.781h56.25zm-46.875-35.938v4.6875c0 0.86328-0.69922 1.5625-1.5625 1.5625s-1.5625-0.69922-1.5625-1.5625v-10.938c0-3.4531 2.7969-6.25 6.25-6.25s6.25 2.7969 6.25 6.25v10.938c0 0.86328-0.69922 1.5625-1.5625 1.5625s-1.5625-0.69922-1.5625-1.5625v-4.6875zm13.281-3.125c0-0.86328 0.69922-1.5625 1.5625-1.5625h7.8125c0.86328 0 1.5625 0.69922 1.5625 1.5625s-0.69922 1.5625-1.5625 1.5625h-7.8125c-0.86328 0-1.5625-0.69922-1.5625-1.5625zm16.406-6.25c-0.86328 0-1.5625-0.69922-1.5625-1.5625s0.69922-1.5625 1.5625-1.5625h9.375c0.5625 0 1.0781 0.30078 1.3594 0.78906 0.27734 0.48828 0.26953 1.0859-0.015625 1.5703l-7.9531 13.266h6.6094c0.86328 0 1.5625 0.69922 1.5625 1.5625s-0.69922 1.5625-1.5625 1.5625h-9.375c-0.5625 0-1.0781-0.30078-1.3594-0.78906-0.27734-0.48828-0.26953-1.0859 0.015625-1.5703l7.9531-13.266zm17.188-11.719h-56.25v-13.281h51.562c2.5859 0.007812 4.6797 2.1016 4.6875 4.6875z"/>
  <path d="m40.625 34.375c0-1.7266-1.3984-3.125-3.125-3.125s-3.125 1.3984-3.125 3.125v3.125h6.25z"/>
 </g>
</svg>
